<svg width="102" height="30" viewBox="0 0 102 30" fill="none" xmlns="http://www.w3.org/2000/svg">
<g filter="url(#filter0_d)">
<path d="M17.0039 20H5.82422V18.4414L11.7305 11.8789C12.6055 10.8867 13.207 10.082 13.5352 9.46484C13.8711 8.83984 14.0391 8.19531 14.0391 7.53125C14.0391 6.64062 13.7695 5.91016 13.2305 5.33984C12.6914 4.76953 11.9727 4.48438 11.0742 4.48438C9.99609 4.48438 9.15625 4.79297 8.55469 5.41016C7.96094 6.01953 7.66406 6.87109 7.66406 7.96484H5.49609C5.49609 6.39453 6 5.125 7.00781 4.15625C8.02344 3.1875 9.37891 2.70312 11.0742 2.70312C12.6602 2.70312 13.9141 3.12109 14.8359 3.95703C15.7578 4.78516 16.2188 5.89062 16.2188 7.27344C16.2188 8.95312 15.1484 10.9531 13.0078 13.2734L8.4375 18.2305H17.0039V20ZM23.7773 11.9492L26.5898 7.32031H29.1211L24.9727 13.5898L29.25 20H26.7422L23.8125 15.2539L20.8828 20H18.3633L22.6406 13.5898L18.4922 7.32031H21L23.7773 11.9492ZM35.4492 14.6211L35.7773 16.8711L36.2578 14.8438L39.6328 2.9375H41.5312L44.8242 14.8438L45.293 16.9062L45.6562 14.6094L48.3047 2.9375H50.5664L46.4297 20H44.3789L40.8633 7.56641L40.5938 6.26562L40.3242 7.56641L36.6797 20H34.6289L30.5039 2.9375H32.7539L35.4492 14.6211ZM54.9023 8.85547C55.8633 7.67578 57.1133 7.08594 58.6523 7.08594C61.332 7.08594 62.6836 8.59766 62.707 11.6211V20H60.5391V11.6094C60.5312 10.6953 60.3203 10.0195 59.9062 9.58203C59.5 9.14453 58.8633 8.92578 57.9961 8.92578C57.293 8.92578 56.6758 9.11328 56.1445 9.48828C55.6133 9.86328 55.1992 10.3555 54.9023 10.9648V20H52.7344V2H54.9023V8.85547ZM73.7812 20C73.6562 19.75 73.5547 19.3047 73.4766 18.6641C72.4688 19.7109 71.2656 20.2344 69.8672 20.2344C68.6172 20.2344 67.5898 19.8828 66.7852 19.1797C65.9883 18.4688 65.5898 17.5703 65.5898 16.4844C65.5898 15.1641 66.0898 14.1406 67.0898 13.4141C68.0977 12.6797 69.5117 12.3125 71.332 12.3125H73.4414V11.3164C73.4414 10.5586 73.2148 9.95703 72.7617 9.51172C72.3086 9.05859 71.6406 8.83203 70.7578 8.83203C69.9844 8.83203 69.3359 9.02734 68.8125 9.41797C68.2891 9.80859 68.0273 10.2812 68.0273 10.8359H65.8477C65.8477 10.2031 66.0703 9.59375 66.5156 9.00781C66.9688 8.41406 67.5781 7.94531 68.3438 7.60156C69.1172 7.25781 69.9648 7.08594 70.8867 7.08594C72.3477 7.08594 73.4922 7.45312 74.3203 8.1875C75.1484 8.91406 75.5781 9.91797 75.6094 11.1992V17.0352C75.6094 18.1992 75.7578 19.125 76.0547 19.8125V20H73.7812ZM70.1836 18.3477C70.8633 18.3477 71.5078 18.1719 72.1172 17.8203C72.7266 17.4688 73.168 17.0117 73.4414 16.4492V13.8477H71.7422C69.0859 13.8477 67.7578 14.625 67.7578 16.1797C67.7578 16.8594 67.9844 17.3906 68.4375 17.7734C68.8906 18.1562 69.4727 18.3477 70.1836 18.3477ZM81.9492 4.25V7.32031H84.3164V8.99609H81.9492V16.8594C81.9492 17.3672 82.0547 17.75 82.2656 18.0078C82.4766 18.2578 82.8359 18.3828 83.3438 18.3828C83.5938 18.3828 83.9375 18.3359 84.375 18.2422V20C83.8047 20.1562 83.25 20.2344 82.7109 20.2344C81.7422 20.2344 81.0117 19.9414 80.5195 19.3555C80.0273 18.7695 79.7812 17.9375 79.7812 16.8594V8.99609H77.4727V7.32031H79.7812V4.25H81.9492ZM94.2422 16.6367C94.2422 16.0508 94.0195 15.5977 93.5742 15.2773C93.1367 14.9492 92.3672 14.668 91.2656 14.4336C90.1719 14.1992 89.3008 13.918 88.6523 13.5898C88.0117 13.2617 87.5352 12.8711 87.2227 12.418C86.918 11.9648 86.7656 11.4258 86.7656 10.8008C86.7656 9.76172 87.2031 8.88281 88.0781 8.16406C88.9609 7.44531 90.0859 7.08594 91.4531 7.08594C92.8906 7.08594 94.0547 7.45703 94.9453 8.19922C95.8438 8.94141 96.293 9.89062 96.293 11.0469H94.1133C94.1133 10.4531 93.8594 9.94141 93.3516 9.51172C92.8516 9.08203 92.2188 8.86719 91.4531 8.86719C90.6641 8.86719 90.0469 9.03906 89.6016 9.38281C89.1562 9.72656 88.9336 10.1758 88.9336 10.7305C88.9336 11.2539 89.1406 11.6484 89.5547 11.9141C89.9688 12.1797 90.7148 12.4336 91.793 12.6758C92.8789 12.918 93.7578 13.207 94.4297 13.543C95.1016 13.8789 95.5977 14.2852 95.918 14.7617C96.2461 15.2305 96.4102 15.8047 96.4102 16.4844C96.4102 17.6172 95.957 18.5273 95.0508 19.2148C94.1445 19.8945 92.9688 20.2344 91.5234 20.2344C90.5078 20.2344 89.6094 20.0547 88.8281 19.6953C88.0469 19.3359 87.4336 18.8359 86.9883 18.1953C86.5508 17.5469 86.332 16.8477 86.332 16.0977H88.5C88.5391 16.8242 88.8281 17.4023 89.3672 17.832C89.9141 18.2539 90.6328 18.4648 91.5234 18.4648C92.3438 18.4648 93 18.3008 93.4922 17.9727C93.9922 17.6367 94.2422 17.1914 94.2422 16.6367Z" fill="#33BA47"/>
<path d="M17.0039 20V21.003H18.0069V20H17.0039ZM5.82422 20H4.82119V21.003H5.82422V20ZM5.82422 18.4414L5.07867 17.7704L4.82119 18.0565V18.4414H5.82422ZM11.7305 11.8789L12.4761 12.5499L12.4828 12.5423L11.7305 11.8789ZM13.5352 9.46484L12.6517 8.98996L12.6495 8.99399L13.5352 9.46484ZM8.55469 5.41016L7.8364 4.71006L7.83629 4.71018L8.55469 5.41016ZM7.66406 7.96484V8.96787H8.66709V7.96484H7.66406ZM5.49609 7.96484H4.49306V8.96787H5.49609V7.96484ZM7.00781 4.15625L6.3155 3.43044L6.31272 3.43312L7.00781 4.15625ZM14.8359 3.95703L14.1622 4.70008L14.1656 4.70321L14.8359 3.95703ZM13.0078 13.2734L12.2706 12.5933L12.2704 12.5935L13.0078 13.2734ZM8.4375 18.2305L7.70007 17.5506L6.14843 19.2335H8.4375V18.2305ZM17.0039 18.2305H18.0069V17.2274H17.0039V18.2305ZM17.0039 18.997H5.82422V21.003H17.0039V18.997ZM6.82725 20V18.4414H4.82119V20H6.82725ZM6.56977 19.1124L12.476 12.5499L10.9849 11.2079L5.07867 17.7704L6.56977 19.1124ZM12.4828 12.5423C13.3723 11.5336 14.0365 10.6585 14.4208 9.9357L12.6495 8.99399C12.3775 9.50554 11.8386 10.2398 10.9782 11.2155L12.4828 12.5423ZM14.4186 9.93972C14.8275 9.17903 15.0421 8.37236 15.0421 7.53125H13.036C13.036 8.01827 12.9147 8.50066 12.6517 8.98997L14.4186 9.93972ZM15.0421 7.53125C15.0421 6.42169 14.6986 5.43284 13.9594 4.65084L12.5015 6.02884C12.8405 6.38747 13.036 6.85956 13.036 7.53125H15.0421ZM13.9594 4.65084C13.2028 3.85035 12.2047 3.48135 11.0742 3.48135V5.4874C11.7406 5.4874 12.18 5.68872 12.5015 6.02884L13.9594 4.65084ZM11.0742 3.48135C9.79758 3.48135 8.67168 3.85308 7.8364 4.71006L9.27297 6.11026C9.64082 5.73286 10.1946 5.4874 11.0742 5.4874V3.48135ZM7.83629 4.71018C7.01211 5.55604 6.66103 6.6874 6.66103 7.96484H8.66709C8.66709 7.05478 8.90976 6.48302 9.27309 6.11013L7.83629 4.71018ZM7.66406 6.96181H5.49609V8.96787H7.66406V6.96181ZM6.49912 7.96484C6.49912 6.63044 6.917 5.63483 7.70291 4.87938L6.31272 3.43312C5.083 4.61517 4.49306 6.15862 4.49306 7.96484H6.49912ZM7.70012 4.88205C8.49175 4.12695 9.5799 3.70615 11.0742 3.70615V1.7001C9.17791 1.7001 7.55512 2.24805 6.31551 3.43045L7.70012 4.88205ZM11.0742 3.70615C12.4818 3.70615 13.4712 4.07353 14.1622 4.70007L15.5097 3.21399C14.3569 2.16866 12.8386 1.7001 11.0742 1.7001V3.70615ZM14.1656 4.70321C14.8499 5.31786 15.2157 6.13857 15.2157 7.27344H17.2218C17.2218 5.64268 16.6657 4.25246 15.5062 3.21086L14.1656 4.70321ZM15.2157 7.27344C15.2157 8.55678 14.3733 10.3141 12.2706 12.5933L13.745 13.9536C15.9236 11.5921 17.2218 9.34947 17.2218 7.27344H15.2157ZM12.2704 12.5935L7.70007 17.5506L9.17493 18.9104L13.7452 13.9533L12.2704 12.5935ZM8.4375 19.2335H17.0039V17.2274H8.4375V19.2335ZM16.0009 18.2305V20H18.0069V18.2305H16.0009ZM23.7773 11.9492L22.9173 12.4653L23.7719 13.8898L24.6346 12.4701L23.7773 11.9492ZM26.5898 7.32031V6.31728H26.0256L25.7326 6.79948L26.5898 7.32031ZM29.1211 7.32031L29.9576 7.8738L30.9875 6.31728H29.1211V7.32031ZM24.9727 13.5898L24.1362 13.0364L23.7684 13.5922L24.1383 14.1466L24.9727 13.5898ZM29.25 20V21.003H31.1251L30.0843 19.4433L29.25 20ZM26.7422 20L25.8887 20.5269L26.1826 21.003H26.7422V20ZM23.8125 15.2539L24.666 14.727L23.8125 13.3444L22.959 14.727L23.8125 15.2539ZM20.8828 20V21.003H21.4424L21.7363 20.5269L20.8828 20ZM18.3633 20L17.5289 19.4433L16.4882 21.003H18.3633V20ZM22.6406 13.5898L23.475 14.1466L23.8449 13.5922L23.4771 13.0364L22.6406 13.5898ZM18.4922 7.32031V6.31728H16.6258L17.6557 7.8738L18.4922 7.32031ZM21 7.32031L21.8601 6.80426L21.5679 6.31728H21V7.32031ZM24.6346 12.4701L27.4471 7.84115L25.7326 6.79948L22.9201 11.4284L24.6346 12.4701ZM26.5898 8.32334H29.1211V6.31728H26.5898V8.32334ZM28.2846 6.76682L24.1362 13.0364L25.8091 14.1433L29.9576 7.8738L28.2846 6.76682ZM24.1383 14.1466L28.4157 20.5567L30.0843 19.4433L25.807 13.0331L24.1383 14.1466ZM29.25 18.997H26.7422V21.003H29.25V18.997ZM27.5957 19.4731L24.666 14.727L22.959 15.7808L25.8887 20.5269L27.5957 19.4731ZM22.959 14.727L20.0293 19.4731L21.7363 20.5269L24.666 15.7808L22.959 14.727ZM20.8828 18.997H18.3633V21.003H20.8828V18.997ZM19.1976 20.5567L23.475 14.1466L21.8063 13.0331L17.5289 19.4433L19.1976 20.5567ZM23.4771 13.0364L19.3287 6.76682L17.6557 7.8738L21.8041 14.1433L23.4771 13.0364ZM18.4922 8.32334H21V6.31728H18.4922V8.32334ZM20.1399 7.83637L22.9173 12.4653L24.6374 11.4332L21.8601 6.80426L20.1399 7.83637ZM35.4492 14.6211L36.4417 14.4763L36.4358 14.4357L36.4266 14.3956L35.4492 14.6211ZM35.7773 16.8711L34.7848 17.0158L36.7533 17.1024L35.7773 16.8711ZM36.2578 14.8438L35.2928 14.5702L35.2868 14.5912L35.2818 14.6124L36.2578 14.8438ZM39.6328 2.9375V1.93447H38.8746L38.6678 2.66396L39.6328 2.9375ZM41.5312 2.9375L42.498 2.67012L42.2945 1.93447H41.5312V2.9375ZM44.8242 14.8438L45.8023 14.6215L45.7972 14.5988L45.791 14.5764L44.8242 14.8438ZM45.293 16.9062L44.3149 17.1285L46.2837 17.0629L45.293 16.9062ZM45.6562 14.6094L44.6781 14.3874L44.6707 14.4198L44.6655 14.4527L45.6562 14.6094ZM48.3047 2.9375V1.93447H47.5038L47.3265 2.71555L48.3047 2.9375ZM50.5664 2.9375L51.5412 3.17383L51.8417 1.93447H50.5664V2.9375ZM46.4297 20V21.003H47.2186L47.4045 20.2363L46.4297 20ZM44.3789 20L43.4137 20.2729L43.6202 21.003H44.3789V20ZM40.8633 7.56641L39.8811 7.76992L39.8884 7.80492L39.8981 7.83932L40.8633 7.56641ZM40.5938 6.26562L41.5759 6.06211H39.6116L40.5938 6.26562ZM40.3242 7.56641L41.2868 7.84855L41.2982 7.80963L41.3064 7.76992L40.3242 7.56641ZM36.6797 20V21.003H37.4309L37.6422 20.2821L36.6797 20ZM34.6289 20L33.654 20.2357L33.8395 21.003H34.6289V20ZM30.5039 2.9375V1.93447H29.2295L29.529 3.1732L30.5039 2.9375ZM32.7539 2.9375L33.7313 2.71203L33.5519 1.93447H32.7539V2.9375ZM34.4567 14.7658L34.7848 17.0158L36.7699 16.7263L36.4417 14.4763L34.4567 14.7658ZM36.7533 17.1024L37.2338 15.0751L35.2818 14.6124L34.8013 16.6398L36.7533 17.1024ZM37.2228 15.1173L40.5978 3.21104L38.6678 2.66396L35.2928 14.5702L37.2228 15.1173ZM39.6328 3.94053H41.5312V1.93447H39.6328V3.94053ZM40.5645 3.20488L43.8575 15.1111L45.791 14.5764L42.498 2.67012L40.5645 3.20488ZM43.8461 15.066L44.3149 17.1285L46.2711 16.684L45.8023 14.6215L43.8461 15.066ZM46.2837 17.0629L46.647 14.7661L44.6655 14.4527L44.3023 16.7496L46.2837 17.0629ZM46.6344 14.8313L49.2829 3.15945L47.3265 2.71555L44.6781 14.3874L46.6344 14.8313ZM48.3047 3.94053H50.5664V1.93447H48.3047V3.94053ZM49.5916 2.70117L45.4549 19.7637L47.4045 20.2363L51.5412 3.17383L49.5916 2.70117ZM46.4297 18.997H44.3789V21.003H46.4297V18.997ZM45.3441 19.7271L41.8285 7.2935L39.8981 7.83932L43.4137 20.2729L45.3441 19.7271ZM41.8454 7.3629L41.5759 6.06211L39.6116 6.46914L39.8811 7.76992L41.8454 7.3629ZM39.6116 6.06211L39.3421 7.3629L41.3064 7.76992L41.5759 6.46914L39.6116 6.06211ZM39.3617 7.28427L35.7172 19.7179L37.6422 20.2821L41.2868 7.84855L39.3617 7.28427ZM36.6797 18.997H34.6289V21.003H36.6797V18.997ZM35.6039 19.7643L31.4788 2.7018L29.529 3.1732L33.654 20.2357L35.6039 19.7643ZM30.5039 3.94053H32.7539V1.93447H30.5039V3.94053ZM31.7765 3.16297L34.4719 14.8466L36.4266 14.3956L33.7313 2.71203L31.7765 3.16297ZM54.9023 8.85547H53.8993V11.675L55.68 9.48894L54.9023 8.85547ZM62.707 11.6211H63.7101L63.71 11.6133L62.707 11.6211ZM62.707 20V21.003H63.7101V20H62.707ZM60.5391 20H59.536V21.003H60.5391V20ZM60.5391 11.6094H61.5421L61.5421 11.6008L60.5391 11.6094ZM59.9062 9.58203L59.1712 10.2646L59.1778 10.2715L59.9062 9.58203ZM54.9023 10.9648L54.0006 10.5255L53.8993 10.7335V10.9648H54.9023ZM54.9023 20V21.003H55.9054V20H54.9023ZM52.7344 20H51.7313V21.003H52.7344V20ZM52.7344 2V0.996971H51.7313V2H52.7344ZM54.9023 2H55.9054V0.996971H54.9023V2ZM55.68 9.48894C56.4479 8.54621 57.4108 8.08897 58.6523 8.08897V6.08291C56.8157 6.08291 55.2786 6.80535 54.1247 8.222L55.68 9.48894ZM58.6523 8.08897C59.8035 8.08897 60.4987 8.40809 60.928 8.88826C61.3775 9.39096 61.6933 10.2446 61.704 11.6289L63.71 11.6133C63.6973 9.97412 63.3257 8.56021 62.4235 7.55119C61.5013 6.51964 60.1808 6.08291 58.6523 6.08291V8.08897ZM61.704 11.6211V20H63.7101V11.6211H61.704ZM62.707 18.997H60.5391V21.003H62.707V18.997ZM61.5421 20V11.6094H59.536V20H61.5421ZM61.5421 11.6008C61.5332 10.5609 61.2945 9.58965 60.6347 8.89256L59.1778 10.2715C59.3461 10.4494 59.5293 10.8297 59.5361 11.6179L61.5421 11.6008ZM60.6413 8.89952C59.9729 8.17979 59.0144 7.92275 57.9961 7.92275V9.92881C58.7122 9.92881 59.0271 10.1093 59.1712 10.2645L60.6413 8.89952ZM57.9961 7.92275C57.1036 7.92275 56.2805 8.16455 55.5661 8.66884L56.723 10.3077C57.0711 10.062 57.4824 9.92881 57.9961 9.92881V7.92275ZM55.5661 8.66884C54.8908 9.1455 54.3683 9.77093 54.0006 10.5255L55.8041 11.4041C56.0302 10.94 56.3357 10.5811 56.723 10.3077L55.5661 8.66884ZM53.8993 10.9648V20H55.9054V10.9648H53.8993ZM54.9023 18.997H52.7344V21.003H54.9023V18.997ZM53.7374 20V2H51.7313V20H53.7374ZM52.7344 3.00303H54.9023V0.996971H52.7344V3.00303ZM53.8993 2V8.85547H55.9054V2H53.8993ZM73.7812 20L72.8841 20.4486L73.1613 21.003H73.7812V20ZM73.4766 18.6641L74.4722 18.5426L74.2169 16.4488L72.754 17.9684L73.4766 18.6641ZM66.7852 19.1797L66.1174 19.9282L66.1252 19.935L66.7852 19.1797ZM67.0898 13.4141L67.6794 14.2255L67.6805 14.2247L67.0898 13.4141ZM73.4414 12.3125V13.3155H74.4444V12.3125H73.4414ZM72.7617 9.51172L72.0524 10.221L72.0587 10.2271L72.7617 9.51172ZM68.0273 10.8359V11.839H69.0304V10.8359H68.0273ZM65.8477 10.8359H64.8446V11.839H65.8477V10.8359ZM66.5156 9.00781L65.7183 8.3993L65.717 8.40089L66.5156 9.00781ZM68.3438 7.60156L67.9364 6.68497L67.9329 6.68653L68.3438 7.60156ZM74.3203 8.1875L73.6548 8.93797L73.6588 8.94147L74.3203 8.1875ZM75.6094 11.1992H76.6124V11.187L76.6121 11.1748L75.6094 11.1992ZM76.0547 19.8125H77.0577V19.6052L76.9755 19.4149L76.0547 19.8125ZM76.0547 20V21.003H77.0577V20H76.0547ZM73.4414 16.4492L74.3435 16.8877L74.4444 16.6801V16.4492H73.4414ZM73.4414 13.8477H74.4444V12.8446H73.4414V13.8477ZM74.6784 19.5514C74.6379 19.4705 74.5499 19.1794 74.4722 18.5426L72.4809 18.7855C72.5595 19.4299 72.6746 20.0295 72.8841 20.4486L74.6784 19.5514ZM72.754 17.9684C71.9269 18.8275 70.9812 19.2313 69.8672 19.2313V21.2374C71.55 21.2374 73.0106 20.5944 74.1992 19.3597L72.754 17.9684ZM69.8672 19.2313C68.8163 19.2313 68.0367 18.9413 67.4451 18.4244L66.1252 19.935C67.143 20.8243 68.418 21.2374 69.8672 21.2374V19.2313ZM67.4529 18.4312C66.8734 17.9142 66.5929 17.29 66.5929 16.4844H64.5868C64.5868 17.8507 65.1031 19.0233 66.1174 19.9281L67.4529 18.4312ZM66.5929 16.4844C66.5929 15.4595 66.9592 14.7488 67.6794 14.2255L66.5003 12.6026C65.2205 13.5325 64.5868 14.8686 64.5868 16.4844H66.5929ZM67.6805 14.2247C68.4542 13.661 69.6306 13.3155 71.332 13.3155V11.3095C69.3929 11.3095 67.7412 11.6984 66.4991 12.6034L67.6805 14.2247ZM71.332 13.3155H73.4414V11.3095H71.332V13.3155ZM74.4444 12.3125V11.3164H72.4384V12.3125H74.4444ZM74.4444 11.3164C74.4444 10.3453 74.1462 9.46603 73.4648 8.79633L72.0587 10.2271C72.2835 10.448 72.4384 10.7719 72.4384 11.3164H74.4444ZM73.471 8.80247C72.7679 8.09937 71.8041 7.829 70.7578 7.829V9.83506C71.4772 9.83506 71.8493 10.0178 72.0525 10.221L73.471 8.80247ZM70.7578 7.829C69.8093 7.829 68.9396 8.07158 68.2126 8.61411L69.4124 10.2218C69.7323 9.98311 70.1595 9.83506 70.7578 9.83506V7.829ZM68.2126 8.61411C67.4864 9.15603 67.0243 9.90608 67.0243 10.8359H69.0304C69.0304 10.6564 69.0917 10.4612 69.4124 10.2218L68.2126 8.61411ZM68.0273 9.83291H65.8477V11.839H68.0273V9.83291ZM66.8507 10.8359C66.8507 10.4568 66.979 10.0557 67.3142 9.61473L65.717 8.40089C65.1616 9.13177 64.8446 9.94945 64.8446 10.8359H66.8507ZM67.313 9.61633C67.6528 9.17106 68.1222 8.80053 68.7546 8.5166L67.9329 6.68653C67.0341 7.09009 66.2847 7.65706 65.7183 8.3993L67.313 9.61633ZM68.7511 8.51814C69.3852 8.23631 70.0925 8.08897 70.8867 8.08897V6.08291C69.8372 6.08291 68.8491 6.27931 67.9364 6.68498L68.7511 8.51814ZM70.8867 8.08897C72.1823 8.08897 73.0623 8.41249 73.6548 8.93795L74.9858 7.43705C73.9221 6.49376 72.513 6.08291 70.8867 6.08291V8.08897ZM73.6588 8.94147C74.2413 9.45256 74.581 10.1725 74.6066 11.2237L76.6121 11.1748C76.5752 9.66346 76.0555 8.37557 74.9818 7.43353L73.6588 8.94147ZM74.6063 11.1992V17.0352H76.6124V11.1992H74.6063ZM74.6063 17.0352C74.6063 18.2681 74.7611 19.347 75.1338 20.2101L76.9755 19.4149C76.7545 18.903 76.6124 18.1303 76.6124 17.0352H74.6063ZM75.0517 19.8125V20H77.0577V19.8125H75.0517ZM76.0547 18.997H73.7812V21.003H76.0547V18.997ZM70.1836 19.3507C71.0456 19.3507 71.8622 19.1254 72.6184 18.6891L71.616 16.9515C71.1534 17.2184 70.681 17.3446 70.1836 17.3446V19.3507ZM72.6184 18.6891C73.3789 18.2504 73.9717 17.6525 74.3435 16.8877L72.5393 16.0107C72.3642 16.3709 72.0742 16.6871 71.616 16.9515L72.6184 18.6891ZM74.4444 16.4492V13.8477H72.4384V16.4492H74.4444ZM73.4414 12.8446H71.7422V14.8507H73.4414V12.8446ZM71.7422 12.8446C70.3491 12.8446 69.1397 13.0427 68.2472 13.565C67.2719 14.1359 66.7548 15.0506 66.7548 16.1797H68.7608C68.7608 15.754 68.9078 15.5028 69.2606 15.2963C69.6963 15.0413 70.4791 14.8507 71.7422 14.8507V12.8446ZM66.7548 16.1797C66.7548 17.1066 67.0772 17.9373 67.7902 18.5396L69.0848 17.0072C68.8916 16.844 68.7608 16.6121 68.7608 16.1797H66.7548ZM67.7902 18.5396C68.4586 19.1044 69.2848 19.3507 70.1836 19.3507V17.3446C69.6605 17.3446 69.3226 17.2081 69.0848 17.0072L67.7902 18.5396ZM81.9492 4.25H82.9522V3.24697H81.9492V4.25ZM81.9492 7.32031H80.9462V8.32334H81.9492V7.32031ZM84.3164 7.32031H85.3194V6.31728H84.3164V7.32031ZM84.3164 8.99609V9.99912H85.3194V8.99609H84.3164ZM81.9492 8.99609V7.99306H80.9462V8.99609H81.9492ZM82.2656 18.0078L81.4893 18.643L81.4941 18.6488L81.499 18.6546L82.2656 18.0078ZM84.375 18.2422H85.378V17.0015L84.1648 17.2614L84.375 18.2422ZM84.375 20L84.64 20.9674L85.378 20.7652V20H84.375ZM79.7812 8.99609H80.7843V7.99306H79.7812V8.99609ZM77.4727 8.99609H76.4696V9.99912H77.4727V8.99609ZM77.4727 7.32031V6.31728H76.4696V7.32031H77.4727ZM79.7812 7.32031V8.32334H80.7843V7.32031H79.7812ZM79.7812 4.25V3.24697H78.7782V4.25H79.7812ZM80.9462 4.25V7.32031H82.9522V4.25H80.9462ZM81.9492 8.32334H84.3164V6.31728H81.9492V8.32334ZM83.3134 7.32031V8.99609H85.3194V7.32031H83.3134ZM84.3164 7.99306H81.9492V9.99912H84.3164V7.99306ZM80.9462 8.99609V16.8594H82.9522V8.99609H80.9462ZM80.9462 16.8594C80.9462 17.4828 81.0722 18.1331 81.4893 18.643L83.0419 17.3727C83.0372 17.3669 82.9522 17.2516 82.9522 16.8594H80.9462ZM81.499 18.6546C81.9854 19.2311 82.7039 19.3858 83.3438 19.3858V17.3798C83.1668 17.3798 83.0678 17.3573 83.0229 17.3417C82.9851 17.3286 83.0038 17.3273 83.0322 17.361L81.499 18.6546ZM83.3438 19.3858C83.699 19.3858 84.1236 19.3219 84.5852 19.223L84.1648 17.2614C83.7514 17.35 83.4885 17.3798 83.3438 17.3798V19.3858ZM83.372 18.2422V20H85.378V18.2422H83.372ZM84.11 19.0326C83.6177 19.1675 83.1523 19.2313 82.7109 19.2313V21.2374C83.3477 21.2374 83.9916 21.145 84.64 20.9674L84.11 19.0326ZM82.7109 19.2313C81.9532 19.2313 81.5404 19.0113 81.2876 18.7103L79.7515 20.0006C80.4831 20.8715 81.5312 21.2374 82.7109 21.2374V19.2313ZM81.2876 18.7103C80.9989 18.3667 80.7843 17.7968 80.7843 16.8594H78.7782C78.7782 18.0782 79.0558 19.1724 79.7515 20.0006L81.2876 18.7103ZM80.7843 16.8594V8.99609H78.7782V16.8594H80.7843ZM79.7812 7.99306H77.4727V9.99912H79.7812V7.99306ZM78.4757 8.99609V7.32031H76.4696V8.99609H78.4757ZM77.4727 8.32334H79.7812V6.31728H77.4727V8.32334ZM80.7843 7.32031V4.25H78.7782V7.32031H80.7843ZM79.7812 5.25303H81.9492V3.24697H79.7812V5.25303ZM93.5742 15.2773L92.9724 16.0798L92.9804 16.0858L92.9885 16.0916L93.5742 15.2773ZM91.2656 14.4336L91.0555 15.4144L91.0569 15.4147L91.2656 14.4336ZM88.6523 13.5898L88.1951 14.4826L88.1995 14.4848L88.6523 13.5898ZM87.2227 12.418L86.3902 12.9777L86.3969 12.9874L87.2227 12.418ZM88.0781 8.16406L87.4448 7.38622L87.4415 7.389L88.0781 8.16406ZM94.9453 8.19922L94.3032 8.96978L94.3065 8.97252L94.9453 8.19922ZM96.293 11.0469V12.0499H97.296V11.0469H96.293ZM94.1133 11.0469H93.1103V12.0499H94.1133V11.0469ZM93.3516 9.51172L92.6978 10.2725L92.7037 10.2774L93.3516 9.51172ZM91.793 12.6758L91.5731 13.6544L91.5746 13.6548L91.793 12.6758ZM95.918 14.7617L95.0855 15.3212L95.0908 15.3291L95.0963 15.3369L95.918 14.7617ZM95.0508 19.2148L95.6526 20.0173L95.657 20.014L95.0508 19.2148ZM86.9883 18.1953L86.1567 18.7564L86.1647 18.7678L86.9883 18.1953ZM86.332 16.0977V15.0946H85.329V16.0977H86.332ZM88.5 16.0977L89.5016 16.0438L89.4506 15.0946H88.5V16.0977ZM89.3672 17.832L88.742 18.6164L88.7482 18.6213L88.7545 18.6262L89.3672 17.832ZM93.4922 17.9727L94.0486 18.8072L94.0516 18.8052L93.4922 17.9727ZM95.2452 16.6367C95.2452 15.7538 94.8875 14.9864 94.1599 14.4631L92.9885 16.0916C93.1516 16.2089 93.2392 16.3477 93.2392 16.6367H95.2452ZM94.176 14.4749C93.5531 14.0077 92.5988 13.6918 91.4744 13.4525L91.0569 15.4147C92.1356 15.6442 92.7204 15.8907 92.9724 16.0798L94.176 14.4749ZM91.4758 13.4528C90.4262 13.2279 89.6472 12.9691 89.1052 12.6949L88.1995 14.4848C88.9543 14.8668 89.9175 15.1705 91.0555 15.4144L91.4758 13.4528ZM89.1096 12.6971C88.5727 12.4221 88.2421 12.1295 88.0484 11.8485L86.3969 12.9874C86.8282 13.6127 87.4508 14.1013 88.1951 14.4826L89.1096 12.6971ZM88.055 11.8583C87.8771 11.5937 87.7687 11.2561 87.7687 10.8008H85.7626C85.7626 11.5954 85.9589 12.336 86.3903 12.9777L88.055 11.8583ZM87.7687 10.8008C87.7687 10.0913 88.048 9.48683 88.7148 8.93913L87.4415 7.389C86.3582 8.27879 85.7626 9.43217 85.7626 10.8008H87.7687ZM88.7114 8.94189C89.3812 8.39656 90.2685 8.08897 91.4531 8.08897V6.08291C89.9034 6.08291 88.5407 6.49406 87.4448 7.38623L88.7114 8.94189ZM91.4531 8.08897C92.7141 8.08897 93.6329 8.41119 94.3032 8.96977L95.5874 7.42867C94.4765 6.50287 93.0672 6.08291 91.4531 6.08291V8.08897ZM94.3065 8.97252C94.9764 9.5259 95.2899 10.1925 95.2899 11.0469H97.296C97.296 9.58872 96.7111 8.35691 95.5841 7.42592L94.3065 8.97252ZM96.293 10.0438H94.1133V12.0499H96.293V10.0438ZM95.1163 11.0469C95.1163 10.1204 94.702 9.34052 93.9995 8.74602L92.7037 10.2774C93.0167 10.5423 93.1103 10.7859 93.1103 11.0469H95.1163ZM94.0053 8.751C93.2946 8.14022 92.4177 7.86416 91.4531 7.86416V9.87022C92.0198 9.87022 92.4085 10.0238 92.6978 10.2724L94.0053 8.751ZM91.4531 7.86416C90.5296 7.86416 89.668 8.0644 88.9887 8.58883L90.2145 10.1768C90.4257 10.0137 90.7985 9.87022 91.4531 9.87022V7.86416ZM88.9887 8.58883C88.3014 9.11934 87.9306 9.85983 87.9306 10.7305H89.9366C89.9366 10.4917 90.0111 10.3338 90.2145 10.1768L88.9887 8.58883ZM87.9306 10.7305C87.9306 11.5693 88.2901 12.2945 89.0131 12.7583L90.0963 11.0698C89.9912 11.0024 89.9366 10.9385 89.9366 10.7305H87.9306ZM89.0131 12.7583C89.5882 13.1272 90.4875 13.4105 91.5731 13.6544L92.0128 11.6971C90.9422 11.4566 90.3493 11.2321 90.0963 11.0698L89.0131 12.7583ZM91.5746 13.6548C92.6151 13.8868 93.4083 14.1537 93.9811 14.4401L94.8783 12.6458C94.1074 12.2604 93.1427 11.9491 92.0113 11.6968L91.5746 13.6548ZM93.9811 14.4401C94.5444 14.7218 94.8872 15.0262 95.0855 15.3212L96.7504 14.2022C96.3081 13.5441 95.6587 13.0361 94.8783 12.6458L93.9811 14.4401ZM95.0963 15.3369C95.2855 15.6073 95.4071 15.9709 95.4071 16.4844H97.4132C97.4132 15.6385 97.2066 14.8536 96.7397 14.1865L95.0963 15.3369ZM95.4071 16.4844C95.4071 17.3019 95.1021 17.917 94.4446 18.4157L95.657 20.014C96.812 19.1377 97.4132 17.9325 97.4132 16.4844H95.4071ZM94.449 18.4124C93.7591 18.9298 92.8121 19.2313 91.5234 19.2313V21.2374C93.1254 21.2374 94.53 20.8592 95.6526 20.0173L94.449 18.4124ZM91.5234 19.2313C90.6266 19.2313 89.8754 19.073 89.2473 18.7841L88.409 20.6066C89.3433 21.0364 90.389 21.2374 91.5234 21.2374V19.2313ZM89.2473 18.7841C88.6116 18.4916 88.1448 18.1017 87.8119 17.6228L86.1647 18.7678C86.7224 19.5701 87.4822 20.1802 88.409 20.6066L89.2473 18.7841ZM87.8198 17.6343C87.489 17.1441 87.3351 16.6388 87.3351 16.0977H85.329C85.329 17.0565 85.6126 17.9497 86.1568 18.7563L87.8198 17.6343ZM86.332 17.1007H88.5V15.0946H86.332V17.1007ZM87.4984 16.1515C87.5519 17.1462 87.9652 17.9972 88.742 18.6164L89.9924 17.0477C89.6911 16.8075 89.5262 16.5023 89.5016 16.0438L87.4984 16.1515ZM88.7545 18.6262C89.5221 19.2183 90.4758 19.4679 91.5234 19.4679V17.4618C90.7898 17.4618 90.3061 17.2895 89.9798 17.0378L88.7545 18.6262ZM91.5234 19.4679C92.4678 19.4679 93.3393 19.2801 94.0486 18.8072L92.9358 17.1381C92.6607 17.3215 92.2197 17.4618 91.5234 17.4618V19.4679ZM94.0516 18.8052C94.8007 18.3019 95.2452 17.5581 95.2452 16.6367H93.2392C93.2392 16.8247 93.1837 16.9715 92.9328 17.1401L94.0516 18.8052Z" fill="white"/>
</g>
<defs>
<filter id="filter0_d" x="0.48092" y="0.996971" width="100.944" height="28.2647" filterUnits="userSpaceOnUse" color-interpolation-filters="sRGB">
<feFlood flood-opacity="0" result="BackgroundImageFix"/>
<feColorMatrix in="SourceAlpha" type="matrix" values="0 0 0 0 0 0 0 0 0 0 0 0 0 0 0 0 0 0 127 0"/>
<feOffset dy="4.01212"/>
<feGaussianBlur stdDeviation="2.00606"/>
<feColorMatrix type="matrix" values="0 0 0 0 0 0 0 0 0 0 0 0 0 0 0 0 0 0 0.25 0"/>
<feBlend mode="normal" in2="BackgroundImageFix" result="effect1_dropShadow"/>
<feBlend mode="normal" in="SourceGraphic" in2="effect1_dropShadow" result="shape"/>
</filter>
</defs>
</svg>
